<?xml version="1.0" encoding="UTF-8" standalone="no"?>
<!-- Created with Inkscape (http://www.inkscape.org/) -->

<svg
   xmlns:dc="http://purl.org/dc/elements/1.1/"
   xmlns:cc="http://creativecommons.org/ns#"
   xmlns:rdf="http://www.w3.org/1999/02/22-rdf-syntax-ns#"
   xmlns:svg="http://www.w3.org/2000/svg"
   xmlns="http://www.w3.org/2000/svg"
   xmlns:sodipodi="http://sodipodi.sourceforge.net/DTD/sodipodi-0.dtd"
   xmlns:inkscape="http://www.inkscape.org/namespaces/inkscape"
   width="210mm"
   height="297mm"
   viewBox="0 0 210 297"
   version="1.1"
   id="svg8"
   inkscape:version="0.92.3 (2405546, 2018-03-11)"
   sodipodi:docname="CatIcon.svg">
  <defs
     id="defs2" />
  <sodipodi:namedview
     id="base"
     pagecolor="#ffffff"
     bordercolor="#666666"
     borderopacity="1.0"
     inkscape:pageopacity="0.0"
     inkscape:pageshadow="2"
     inkscape:zoom="0.71183586"
     inkscape:cx="448.4943"
     inkscape:cy="426.56366"
     inkscape:document-units="mm"
     inkscape:current-layer="layer1"
     showgrid="false"
     inkscape:window-width="2560"
     inkscape:window-height="1377"
     inkscape:window-x="-8"
     inkscape:window-y="-8"
     inkscape:window-maximized="1">
    <inkscape:grid
       type="xygrid"
       id="grid815" />
  </sodipodi:namedview>
  <metadata
     id="metadata5">
    <rdf:RDF>
      <cc:Work
         rdf:about="">
        <dc:format>image/svg+xml</dc:format>
        <dc:type
           rdf:resource="http://purl.org/dc/dcmitype/StillImage" />
        <dc:title />
      </cc:Work>
    </rdf:RDF>
  </metadata>
  <g
     inkscape:label="Layer 1"
     inkscape:groupmode="layer"
     id="layer1">
    <g
       id="g847"
       style="fill:#000000;fill-opacity:0.72596154;stroke:none"
       transform="matrix(1.1729285,0,0,1.1729285,-16.126133,-23.399053)">
      <path
         inkscape:connector-curvature="0"
         id="path817"
         d="m 15.875001,110.46875 c 0,0 6.614583,-44.979167 13.229167,-51.59375 6.614583,-6.614583 10.583333,-9.260416 10.583333,-9.260416 0,0 14.552083,3.96875 19.843749,10.583333 5.291667,6.614583 19.84375,48.947913 19.84375,48.947913 0,0 7.9375,-1.32292 10.583338,-1.32292 2.64583,0 5.29166,-7.937497 5.29166,-7.937497 0,0 0,9.260417 2.64584,7.937497 2.645832,-1.32291 7.937502,-5.29166 7.937502,-5.29166 0,0 0,2.64583 0,3.96875 0,1.32291 9.26041,2.64583 9.26041,1.32291 0,-1.32291 5.29167,-3.96875 5.29167,-3.96875 0,0 0,2.64584 2.64583,3.96875 2.64583,1.32292 5.29167,-3.96875 5.29167,-3.96875 0,0 5.29166,1.32292 5.29166,2.64584 0,1.32291 6.61459,0 6.61459,0 0,0 9.26041,-43.65625 11.90625,-48.947916 2.64583,-5.291667 7.9375,-15.875 11.90625,-14.552084 3.96875,1.322917 14.55208,11.90625 19.84375,29.104167 5.29166,17.197916 7.9375,35.718743 7.9375,35.718743"
         style="fill:#000000;fill-opacity:0.72596154;stroke:none;stroke-width:0.26458332px;stroke-linecap:butt;stroke-linejoin:miter;stroke-opacity:1" />
      <path
         inkscape:connector-curvature="0"
         id="path819"
         d="m 15.875,110.46875 c 0,0 13.229166,107.15625 29.104166,115.09375 15.875,7.9375 34.395833,15.875 55.562504,15.875 21.16666,0 82.02083,-13.22917 79.37499,-21.16667 -2.64583,-7.9375 11.90625,-112.44791 11.90625,-112.44791"
         style="fill:#000000;fill-opacity:0.72596154;stroke:none;stroke-width:0.26458332px;stroke-linecap:butt;stroke-linejoin:miter;stroke-opacity:1" />
    </g>
    <path
       style="fill:#ff6666;fill-opacity:1;stroke:none;stroke-width:0.31033733px;stroke-linecap:butt;stroke-linejoin:miter;stroke-opacity:1"
       d="m 8.7008524,104.6212 c 0,0 6.2067476,-52.757339 12.4134946,-55.860712 6.206746,-3.103373 9.310121,-9.31012 9.310121,-9.31012 0,0 18.620238,6.206747 18.620238,9.31012 0,3.103373 24.826988,49.653976 24.826988,55.860712 0,6.20675 -65.1708416,0 -65.1708416,0 z"
       id="path821"
       inkscape:connector-curvature="0" />
    <path
       style="fill:#ffffff;fill-opacity:1;stroke:none;stroke-width:0.31033733px;stroke-linecap:butt;stroke-linejoin:miter;stroke-opacity:1"
       d="m 64.561574,126.34482 -43.447227,12.41349 37.24048,24.82699 c 0,0 49.653973,6.20674 43.447233,-12.4135 -6.206756,-18.62024 -37.240486,-24.82698 -37.240486,-24.82698 z"
       id="path825"
       inkscape:connector-curvature="0" />
    <path
       inkscape:connector-curvature="0"
       id="path829"
       d="m 151.45603,126.34482 43.44723,12.41349 -37.24047,24.82699 c 0,0 -49.65398,6.20674 -43.44724,-12.4135 6.20675,-18.62024 37.24048,-24.82698 37.24048,-24.82698 z"
       style="fill:#ffffff;fill-opacity:1;stroke:none;stroke-width:0.31033733px;stroke-linecap:butt;stroke-linejoin:miter;stroke-opacity:1" />
    <path
       style="fill:#ff6666;fill-opacity:1;stroke:none;stroke-width:0.31033733px;stroke-linecap:butt;stroke-linejoin:miter;stroke-opacity:1"
       d="m 154.5594,98.414464 c 0,0 9.31012,-49.653976 12.41349,-55.860723 3.10338,-6.206746 9.31012,-12.413494 9.31012,-12.413494 0,0 12.4135,15.516868 15.51688,21.723614 3.10336,6.206747 12.41348,46.550603 12.41348,46.550603 z"
       id="path833"
       inkscape:connector-curvature="0" />
    <path
       style="fill:#ffffff;fill-opacity:1;stroke:none;stroke-width:0.31033733px;stroke-linecap:butt;stroke-linejoin:miter;stroke-opacity:1"
       d="m 95.520213,176.53022 c 0,0 -46.765771,-5.17566 -57.301931,10.53616 -10.536164,15.71182 20.517789,46.95061 20.517789,46.95061 0,0 23.660154,15.34213 32.163016,13.86337 8.502871,-1.47875 17.560273,-24.21468 17.560273,-24.21468 0,0 11.83007,21.62685 24.76922,19.59356 12.93915,-2.0333 32.71756,-19.96325 31.79334,-31.23879 -0.92423,-11.27554 -28.28128,-28.28128 -28.28128,-28.28128 l -19.7784,-8.50286"
       id="path841"
       inkscape:connector-curvature="0" />
    <path
       style="fill:#ff6e6d;fill-opacity:1;stroke:none;stroke-width:0.31033733px;stroke-linecap:butt;stroke-linejoin:miter;stroke-opacity:1"
       d="m 108.00883,160.48192 -15.51689,12.4135 9.31012,12.41349 18.62025,-12.41349 z"
       id="path835"
       inkscape:connector-curvature="0" />
    <g
       id="g857"
       transform="matrix(2.5939766,0,0,2.5939766,391.10328,-23.80268)">
      <circle
         r="5.7946119"
         cy="66.552727"
         cx="-122.57834"
         id="path851"
         style="opacity:1;fill:#000000;fill-opacity:1;stroke:none;stroke-width:13.63600063;stroke-linecap:butt;stroke-linejoin:round;stroke-miterlimit:4;stroke-dasharray:none;stroke-dashoffset:0;stroke-opacity:1;paint-order:stroke fill markers" />
      <circle
         r="2.6744366"
         cy="66.6008"
         cx="-120.97803"
         id="path853"
         style="opacity:1;fill:#0070ff;fill-opacity:1;stroke:none;stroke-width:13.63600063;stroke-linecap:butt;stroke-linejoin:round;stroke-miterlimit:4;stroke-dasharray:none;stroke-dashoffset:0;stroke-opacity:1;paint-order:stroke fill markers" />
    </g>
    <g
       transform="matrix(-2.5939766,0,0,2.5939766,-174.50806,-23.27986)"
       id="g863">
      <circle
         style="opacity:1;fill:#000000;fill-opacity:1;stroke:none;stroke-width:13.63600063;stroke-linecap:butt;stroke-linejoin:round;stroke-miterlimit:4;stroke-dasharray:none;stroke-dashoffset:0;stroke-opacity:1;paint-order:stroke fill markers"
         id="circle859"
         cx="-122.57834"
         cy="66.552727"
         r="5.7946119" />
      <circle
         style="opacity:1;fill:#0070ff;fill-opacity:1;stroke:none;stroke-width:13.63600063;stroke-linecap:butt;stroke-linejoin:round;stroke-miterlimit:4;stroke-dasharray:none;stroke-dashoffset:0;stroke-opacity:1;paint-order:stroke fill markers"
         id="circle861"
         cx="-120.97803"
         cy="66.6008"
         r="2.6744366" />
    </g>
  </g>
</svg>
