<?xml version="1.0" encoding="UTF-8" standalone="no"?>
<!-- Created with Inkscape (http://www.inkscape.org/) -->

<svg
   xmlns:dc="http://purl.org/dc/elements/1.1/"
   xmlns:cc="http://creativecommons.org/ns#"
   xmlns:rdf="http://www.w3.org/1999/02/22-rdf-syntax-ns#"
   xmlns:svg="http://www.w3.org/2000/svg"
   xmlns="http://www.w3.org/2000/svg"
   xmlns:sodipodi="http://sodipodi.sourceforge.net/DTD/sodipodi-0.dtd"
   xmlns:inkscape="http://www.inkscape.org/namespaces/inkscape"
   width="210mm"
   height="297mm"
   viewBox="0 0 210 297"
   version="1.1"
   id="svg8"
   inkscape:version="0.92.3 (2405546, 2018-03-11)"
   sodipodi:docname="CatIcon.svg">
  <defs
     id="defs2" />
  <sodipodi:namedview
     id="base"
     pagecolor="#ffffff"
     bordercolor="#666666"
     borderopacity="1.0"
     inkscape:pageopacity="0.0"
     inkscape:pageshadow="2"
     inkscape:zoom="0.593583"
     inkscape:cx="-265.15729"
     inkscape:cy="695.60474"
     inkscape:document-units="mm"
     inkscape:current-layer="layer1"
     showgrid="false"
     inkscape:window-width="2560"
     inkscape:window-height="1377"
     inkscape:window-x="-8"
     inkscape:window-y="-8"
     inkscape:window-maximized="1">
    <inkscape:grid
       type="xygrid"
       id="grid815" />
  </sodipodi:namedview>
  <metadata
     id="metadata5">
    <rdf:RDF>
      <cc:Work
         rdf:about="">
        <dc:format>image/svg+xml</dc:format>
        <dc:type
           rdf:resource="http://purl.org/dc/dcmitype/StillImage" />
        <dc:title></dc:title>
      </cc:Work>
    </rdf:RDF>
  </metadata>
  <g
     inkscape:label="Layer 1"
     inkscape:groupmode="layer"
     id="layer1">
    <g
       id="g847"
       style="fill:#000000;fill-opacity:0.72596157;stroke:none">
      <path
         inkscape:connector-curvature="0"
         id="path817"
         d="m 15.875001,110.46875 c 0,0 6.614583,-44.979167 13.229167,-51.59375 6.614583,-6.614583 10.583333,-9.260416 10.583333,-9.260416 0,0 14.552083,3.96875 19.843749,10.583333 5.291667,6.614583 19.84375,48.947913 19.84375,48.947913 0,0 7.9375,-1.32292 10.583338,-1.32292 2.64583,0 5.29166,-7.937497 5.29166,-7.937497 0,0 0,9.260417 2.64584,7.937497 2.645832,-1.32291 7.937502,-5.29166 7.937502,-5.29166 0,0 0,2.64583 0,3.96875 0,1.32291 9.26041,2.64583 9.26041,1.32291 0,-1.32291 5.29167,-3.96875 5.29167,-3.96875 0,0 0,2.64584 2.64583,3.96875 2.64583,1.32292 5.29167,-3.96875 5.29167,-3.96875 0,0 5.29166,1.32292 5.29166,2.64584 0,1.32291 6.61459,0 6.61459,0 0,0 9.26041,-43.65625 11.90625,-48.947916 2.64583,-5.291667 7.9375,-15.875 11.90625,-14.552084 3.96875,1.322917 14.55208,11.90625 19.84375,29.104167 5.29166,17.197916 7.9375,35.718743 7.9375,35.718743"
         style="fill:#000000;stroke:none;stroke-width:0.26458332px;stroke-linecap:butt;stroke-linejoin:miter;stroke-opacity:1;fill-opacity:0.72596157" />
      <path
         inkscape:connector-curvature="0"
         id="path819"
         d="m 15.875,110.46875 c 0,0 13.229166,107.15625 29.104166,115.09375 15.875,7.9375 34.395833,15.875 55.562504,15.875 21.16666,0 82.02083,-13.22917 79.37499,-21.16667 -2.64583,-7.9375 11.90625,-112.44791 11.90625,-112.44791"
         style="fill:#000000;stroke:none;stroke-width:0.26458332px;stroke-linecap:butt;stroke-linejoin:miter;stroke-opacity:1;fill-opacity:0.72596157" />
    </g>
    <path
       style="fill:#ff6666;stroke:none;stroke-width:0.26458332px;stroke-linecap:butt;stroke-linejoin:miter;stroke-opacity:1;fill-opacity:1"
       d="m 21.166666,109.14583 c 0,0 5.291667,-44.979163 10.583334,-47.624996 5.291666,-2.645833 7.9375,-7.9375 7.9375,-7.9375 0,0 15.874999,5.291667 15.874999,7.9375 0,2.645833 21.166667,42.333336 21.166667,47.624996 0,5.29167 -55.5625,0 -55.5625,0 z"
       id="path821"
       inkscape:connector-curvature="0" />
    <path
       style="fill:#ffffff;stroke:none;stroke-width:0.26458332px;stroke-linecap:butt;stroke-linejoin:miter;stroke-opacity:1;fill-opacity:1"
       d="M 68.791666,127.66667 31.75,138.25 63.499999,159.41667 c 0,0 42.333331,5.29166 37.041671,-10.58334 -5.291671,-15.875 -31.750004,-21.16666 -31.750004,-21.16666 z"
       id="path825"
       inkscape:connector-curvature="0" />
    <path
       inkscape:connector-curvature="0"
       id="path829"
       d="m 142.875,127.66667 37.04167,10.58333 -31.75,21.16667 c 0,0 -42.33333,5.29166 -37.04167,-10.58334 5.29167,-15.875 31.75,-21.16666 31.75,-21.16666 z"
       style="fill:#ffffff;stroke:none;stroke-width:0.26458332px;stroke-linecap:butt;stroke-linejoin:miter;stroke-opacity:1;fill-opacity:1" />
    <path
       style="fill:#ff6666;stroke:none;stroke-width:0.26458332px;stroke-linecap:butt;stroke-linejoin:miter;stroke-opacity:1;fill-opacity:1"
       d="m 145.52083,103.85417 c 0,0 7.9375,-42.333336 10.58333,-47.625003 2.64584,-5.291666 7.9375,-10.583333 7.9375,-10.583333 0,0 10.58334,13.229167 13.22917,18.520833 2.64583,5.291667 10.58333,39.687503 10.58333,39.687503 z"
       id="path833"
       inkscape:connector-curvature="0" />
    <path
       style="fill:#ffffff;stroke:none;stroke-width:0.26458332px;stroke-linecap:butt;stroke-linejoin:miter;stroke-opacity:1;fill-opacity:1"
       d="m 95.185978,170.45308 c 0,0 -39.870949,-4.4126 -48.85373,8.98278 -8.982784,13.39538 17.492787,40.02854 17.492787,40.02854 0,0 20.171862,13.08019 27.421125,11.81945 7.249263,-1.26074 14.9713,-20.64464 14.9713,-20.64464 0,0 10.08593,18.43834 21.11742,16.70482 11.03149,-1.73352 27.89391,-17.02 27.10594,-26.63316 -0.78796,-9.61315 -24.11168,-24.11168 -24.11168,-24.11168 l -16.86241,-7.24926"
       id="path841"
       inkscape:connector-curvature="0" />
    <path
       style="fill:#ff6e6d;stroke:none;stroke-width:0.26458332px;stroke-linecap:butt;stroke-linejoin:miter;stroke-opacity:1;fill-opacity:1"
       d="m 105.83335,156.77083 -13.229183,10.58334 7.937503,10.58333 15.87501,-10.58333 z"
       id="path835"
       inkscape:connector-curvature="0" />
    <g
       id="g857"
       transform="matrix(2.2115385,0,0,2.2115385,347.1903,-0.34411897)">
      <circle
         r="5.7946119"
         cy="66.552727"
         cx="-122.57834"
         id="path851"
         style="opacity:1;fill:#000000;fill-opacity:1;stroke:none;stroke-width:13.63600063;stroke-linecap:butt;stroke-linejoin:round;stroke-miterlimit:4;stroke-dasharray:none;stroke-dashoffset:0;stroke-opacity:1;paint-order:stroke fill markers" />
      <circle
         r="2.6744366"
         cy="66.6008"
         cx="-120.97803"
         id="path853"
         style="opacity:1;fill:#0070ff;fill-opacity:1;stroke:none;stroke-width:13.63600063;stroke-linecap:butt;stroke-linejoin:round;stroke-miterlimit:4;stroke-dasharray:none;stroke-dashoffset:0;stroke-opacity:1;paint-order:stroke fill markers" />
    </g>
    <g
       transform="matrix(-2.2115385,0,0,2.2115385,-135.03118,0.10162044)"
       id="g863">
      <circle
         style="opacity:1;fill:#000000;fill-opacity:1;stroke:none;stroke-width:13.63600063;stroke-linecap:butt;stroke-linejoin:round;stroke-miterlimit:4;stroke-dasharray:none;stroke-dashoffset:0;stroke-opacity:1;paint-order:stroke fill markers"
         id="circle859"
         cx="-122.57834"
         cy="66.552727"
         r="5.7946119" />
      <circle
         style="opacity:1;fill:#0070ff;fill-opacity:1;stroke:none;stroke-width:13.63600063;stroke-linecap:butt;stroke-linejoin:round;stroke-miterlimit:4;stroke-dasharray:none;stroke-dashoffset:0;stroke-opacity:1;paint-order:stroke fill markers"
         id="circle861"
         cx="-120.97803"
         cy="66.6008"
         r="2.6744366" />
    </g>
  </g>
</svg>
